<?xml version="1.0" encoding="UTF-8"?>
<svg xmlns="http://www.w3.org/2000/svg" xmlns:xlink="http://www.w3.org/1999/xlink" width="810pt" height="809.999993pt" viewBox="0 0 810 809.999993" version="1.2">
<defs>
<clipPath id="clip1">
  <path d="M 136 132 L 688 132 L 688 617 L 136 617 Z M 136 132 "/>
</clipPath>
<clipPath id="clip2">
  <path d="M 156.476562 13.851562 L 810.199219 568.398438 L 653.003906 753.703125 L -0.71875 199.160156 Z M 156.476562 13.851562 "/>
</clipPath>
<clipPath id="clip3">
  <path d="M 156.476562 13.851562 L 810.199219 568.398438 L 653.003906 753.703125 L -0.71875 199.160156 Z M 156.476562 13.851562 "/>
</clipPath>
<clipPath id="clip4">
  <path d="M 91 75 L 754 75 L 754 650 L 91 650 Z M 91 75 "/>
</clipPath>
<clipPath id="clip5">
  <path d="M 156.476562 13.851562 L 810.199219 568.398438 L 653.003906 753.703125 L -0.71875 199.160156 Z M 156.476562 13.851562 "/>
</clipPath>
<clipPath id="clip6">
  <path d="M 156.476562 13.851562 L 810.199219 568.398438 L 653.003906 753.703125 L -0.71875 199.160156 Z M 156.476562 13.851562 "/>
</clipPath>
<clipPath id="clip7">
  <path d="M 60 83 L 749 83 L 749 688 L 60 688 Z M 60 83 "/>
</clipPath>
<clipPath id="clip8">
  <path d="M 156.476562 13.851562 L 810.199219 568.398438 L 653.003906 753.703125 L -0.71875 199.160156 Z M 156.476562 13.851562 "/>
</clipPath>
<clipPath id="clip9">
  <path d="M 156.476562 13.851562 L 810.199219 568.398438 L 653.003906 753.703125 L -0.71875 199.160156 Z M 156.476562 13.851562 "/>
</clipPath>
<clipPath id="clip10">
  <path d="M 98.695312 83.027344 L 751.371094 636.683594 L 651.910156 753.933594 L -0.765625 200.277344 Z M 98.695312 83.027344 "/>
</clipPath>
<clipPath id="clip11">
  <path d="M 98.695312 83.027344 L 751.371094 636.683594 L 652.496094 753.246094 L -0.183594 199.585938 Z M 98.695312 83.027344 "/>
</clipPath>
</defs>
<g id="surface1">
<g clip-path="url(#clip1)" clip-rule="nonzero">
<g clip-path="url(#clip2)" clip-rule="nonzero">
<g clip-path="url(#clip3)" clip-rule="nonzero">
<path style=" stroke:none;fill-rule:nonzero;fill:rgb(17.649841%,25.489807%,62.348938%);fill-opacity:1;" d="M 683.351562 577.644531 L 681.550781 579.683594 L 647.828125 616.683594 L 649.742188 614.503906 L 651.292969 612.042969 L 652.503906 609.316406 L 653.359375 606.308594 L 653.847656 603.023438 L 654.003906 599.472656 L 653.820312 595.675781 L 653.300781 591.640625 L 652.433594 587.355469 L 651.246094 582.855469 L 649.742188 578.121094 L 647.90625 573.175781 L 645.761719 568.027344 L 643.300781 562.671875 L 640.542969 557.125 L 637.476562 551.40625 L 634.136719 545.511719 L 630.5 539.457031 L 626.59375 533.246094 L 622.402344 526.890625 L 617.972656 520.390625 L 613.269531 513.769531 L 608.324219 507.019531 L 603.128906 500.160156 L 597.714844 493.207031 L 592.066406 486.140625 L 586.210938 478.992188 L 580.132812 471.773438 L 573.851562 464.480469 L 567.386719 457.113281 L 560.734375 449.710938 L 553.898438 442.242188 L 546.894531 434.75 L 539.730469 427.234375 L 532.402344 419.679688 L 524.9375 412.113281 L 517.324219 404.542969 L 509.59375 396.960938 L 501.726562 389.394531 L 493.761719 381.839844 L 485.671875 374.308594 L 477.496094 366.820312 L 469.21875 359.355469 L 460.867188 351.941406 L 452.445312 344.574219 L 443.964844 337.261719 L 435.429688 330.023438 L 426.851562 322.859375 L 418.230469 315.777344 L 409.558594 308.773438 L 400.878906 301.871094 L 392.175781 295.066406 L 383.484375 288.363281 L 374.789062 281.777344 L 366.101562 275.3125 L 357.4375 268.988281 L 348.804688 262.796875 L 340.210938 256.738281 L 331.675781 250.835938 L 323.1875 245.101562 L 314.777344 239.515625 L 306.433594 234.101562 L 298.171875 228.859375 L 290.003906 223.804688 L 281.933594 218.933594 L 273.980469 214.269531 L 266.128906 209.789062 L 258.421875 205.523438 L 250.847656 201.460938 L 243.433594 197.625 L 236.175781 194.019531 L 229.070312 190.636719 L 222.15625 187.503906 L 215.402344 184.601562 L 208.867188 181.953125 L 202.535156 179.550781 L 196.410156 177.414062 L 190.519531 175.539062 L 184.847656 173.9375 L 179.421875 172.601562 L 174.246094 171.542969 L 169.324219 170.753906 L 164.667969 170.253906 L 160.296875 170.046875 L 156.203125 170.140625 L 152.40625 170.515625 L 148.914062 171.191406 L 145.722656 172.167969 L 142.855469 173.445312 L 140.304688 175.03125 L 138.085938 176.933594 L 136.214844 179.121094 L 167.460938 140.230469 L 169.238281 138.160156 L 171.347656 136.410156 L 173.785156 134.957031 L 176.550781 133.800781 L 179.65625 132.957031 L 183.058594 132.414062 L 186.769531 132.175781 L 190.757812 132.226562 L 195.035156 132.5625 L 199.605469 133.199219 L 204.449219 134.101562 L 209.535156 135.292969 L 214.890625 136.75 L 220.484375 138.488281 L 226.320312 140.488281 L 232.378906 142.757812 L 238.65625 145.277344 L 245.144531 148.046875 L 251.828125 151.070312 L 258.695312 154.328125 L 265.738281 157.820312 L 272.957031 161.539062 L 280.34375 165.484375 L 287.875 169.648438 L 295.546875 174.027344 L 303.351562 178.601562 L 311.269531 183.371094 L 319.300781 188.339844 L 327.453125 193.488281 L 335.707031 198.824219 L 344.035156 204.316406 L 352.445312 209.984375 L 360.925781 215.808594 L 369.46875 221.789062 L 378.046875 227.90625 L 386.679688 234.164062 L 395.347656 240.5625 L 404.042969 247.078125 L 412.742188 253.714844 L 421.460938 260.46875 L 430.160156 267.316406 L 438.878906 274.265625 L 447.5625 281.308594 L 456.214844 288.4375 L 464.835938 295.636719 L 473.410156 302.910156 L 481.9375 310.242188 L 490.394531 317.625 L 498.789062 325.089844 L 507.109375 332.5625 L 515.339844 340.082031 L 523.488281 347.617188 L 531.507812 355.160156 L 539.429688 362.714844 L 547.230469 370.28125 L 554.914062 377.839844 L 562.460938 385.402344 L 569.851562 392.929688 L 577.09375 400.441406 L 584.183594 407.910156 L 591.105469 415.328125 L 597.84375 422.71875 L 604.40625 430.046875 L 610.773438 437.300781 L 616.933594 444.472656 L 622.886719 451.5625 L 628.628906 458.566406 L 634.136719 465.464844 L 639.425781 472.269531 L 644.480469 478.941406 L 649.289062 485.5 L 653.832031 491.921875 L 658.121094 498.207031 L 662.148438 504.339844 L 665.890625 510.320312 L 669.359375 516.128906 L 672.53125 521.765625 L 675.402344 527.210938 L 677.964844 532.464844 L 680.238281 537.527344 L 682.195312 542.382812 L 683.828125 547.015625 L 685.144531 551.421875 L 686.128906 555.59375 L 686.78125 559.53125 L 687.078125 563.21875 L 687.050781 566.644531 L 686.65625 569.8125 L 685.921875 572.707031 L 684.832031 575.324219 L 683.351562 577.644531 "/>
</g>
</g>
</g>
<g clip-path="url(#clip4)" clip-rule="nonzero">
<g clip-path="url(#clip5)" clip-rule="nonzero">
<g clip-path="url(#clip6)" clip-rule="nonzero">
<path style=" stroke:none;fill-rule:nonzero;fill:rgb(21.958923%,71.369934%,100%);fill-opacity:1;" d="M 676.867188 582.890625 L 673.972656 584.027344 L 670.734375 584.847656 L 667.121094 585.359375 L 663.160156 585.539062 L 658.847656 585.402344 L 654.179688 584.945312 L 649.175781 584.148438 L 643.8125 583.011719 L 638.121094 581.570312 L 632.089844 579.765625 L 625.71875 577.632812 L 619.035156 575.15625 L 612.03125 572.339844 L 604.722656 569.199219 L 597.121094 565.71875 L 589.234375 561.925781 L 581.0625 557.800781 L 572.621094 553.347656 L 563.941406 548.582031 L 555 543.507812 L 545.839844 538.117188 L 536.472656 532.441406 L 526.921875 526.476562 L 517.175781 520.21875 L 507.265625 513.695312 L 497.207031 506.917969 L 487.011719 499.875 L 476.722656 492.601562 L 466.320312 485.097656 L 455.835938 477.390625 L 445.300781 469.46875 L 434.710938 461.371094 L 424.109375 453.09375 L 413.507812 444.652344 L 402.914062 436.066406 L 392.363281 427.351562 L 381.851562 418.523438 L 371.410156 409.59375 L 361.058594 400.578125 L 350.828125 391.507812 L 340.714844 382.378906 L 330.746094 373.226562 L 320.945312 364.050781 L 311.335938 354.878906 L 301.914062 345.726562 L 292.707031 336.605469 L 283.722656 327.515625 L 274.972656 318.5 L 266.488281 309.5625 L 258.289062 300.722656 L 250.367188 291.996094 L 242.734375 283.382812 L 235.398438 274.914062 L 228.398438 266.605469 L 221.714844 258.464844 L 215.375 250.488281 L 209.378906 242.714844 L 203.742188 235.125 L 198.453125 227.746094 L 193.519531 220.597656 L 188.976562 213.683594 L 184.800781 207.011719 L 181 200.589844 L 177.582031 194.421875 L 174.539062 188.527344 L 171.867188 182.894531 L 169.582031 177.550781 L 167.683594 172.496094 L 166.179688 167.714844 L 165.039062 163.226562 L 164.285156 159.035156 L 163.898438 155.140625 L 163.878906 151.558594 L 164.234375 148.265625 L 164.957031 145.285156 L 166.015625 142.617188 L 167.441406 140.257812 L 169.214844 138.1875 L 171.324219 136.4375 L 173.761719 134.984375 L 176.527344 133.828125 L 179.632812 132.984375 L 183.039062 132.441406 L 186.746094 132.203125 L 190.734375 132.253906 L 195.015625 132.589844 L 199.582031 133.226562 L 204.421875 134.132812 L 209.511719 135.316406 L 214.863281 136.78125 L 220.460938 138.511719 L 226.292969 140.519531 L 232.355469 142.78125 L 238.632812 145.300781 L 245.121094 148.074219 L 251.804688 151.097656 L 258.671875 154.351562 L 265.71875 157.847656 L 272.9375 161.566406 L 280.320312 165.511719 L 287.851562 169.671875 L 295.523438 174.050781 L 303.324219 178.632812 L 311.242188 183.402344 L 319.277344 188.367188 L 327.429688 193.515625 L 335.683594 198.851562 L 344.015625 204.34375 L 352.417969 210.015625 L 360.90625 215.835938 L 369.445312 221.816406 L 378.023438 227.933594 L 386.660156 234.1875 L 395.324219 240.589844 L 404.019531 247.105469 L 412.71875 253.742188 L 421.4375 260.496094 L 430.140625 267.34375 L 438.855469 274.292969 L 447.539062 281.332031 L 456.191406 288.464844 L 464.8125 295.660156 L 473.390625 302.9375 L 481.914062 310.269531 L 490.375 317.652344 L 498.789062 325.089844 L 507.109375 332.5625 L 515.339844 340.082031 L 523.488281 347.617188 L 531.507812 355.160156 L 539.429688 362.714844 L 547.230469 370.28125 L 554.914062 377.839844 L 562.460938 385.402344 L 569.851562 392.929688 L 577.09375 400.441406 L 584.183594 407.910156 L 591.105469 415.328125 L 597.84375 422.71875 L 604.40625 430.046875 L 610.773438 437.300781 L 616.933594 444.472656 L 622.886719 451.5625 L 628.628906 458.566406 L 634.136719 465.464844 L 639.425781 472.269531 L 644.480469 478.941406 L 649.289062 485.5 L 653.832031 491.921875 L 658.121094 498.207031 L 662.148438 504.339844 L 665.890625 510.320312 L 669.359375 516.128906 L 672.53125 521.765625 L 675.402344 527.210938 L 677.964844 532.464844 L 680.238281 537.527344 L 682.195312 542.382812 L 683.828125 547.015625 L 685.144531 551.421875 L 686.128906 555.59375 L 686.78125 559.53125 L 687.078125 563.21875 L 687.050781 566.644531 L 686.65625 569.8125 L 685.921875 572.707031 L 684.832031 575.324219 L 683.378906 577.667969 L 681.578125 579.707031 L 679.429688 581.449219 Z M 750.496094 637.171875 L 752.007812 633.9375 L 753.074219 630.363281 L 753.6875 626.4375 L 753.859375 622.183594 L 753.628906 617.625 L 752.949219 612.742188 L 751.84375 607.566406 L 750.316406 602.09375 L 748.402344 596.34375 L 746.058594 590.328125 L 743.335938 584.054688 L 740.234375 577.53125 L 736.761719 570.78125 L 732.921875 563.792969 L 728.734375 556.601562 L 724.183594 549.195312 L 719.289062 541.59375 L 714.074219 533.828125 L 708.539062 525.894531 L 702.691406 517.785156 L 696.546875 509.527344 L 690.105469 501.121094 L 683.382812 492.59375 L 676.386719 483.945312 L 669.132812 475.199219 L 661.617188 466.34375 L 653.859375 457.390625 L 645.863281 448.363281 L 637.644531 439.269531 L 629.21875 430.097656 L 620.59375 420.882812 L 611.769531 411.632812 L 602.746094 402.339844 L 593.5625 393.019531 L 584.203125 383.6875 L 574.695312 374.34375 L 565.03125 364.984375 L 555.226562 355.65625 L 545.308594 346.335938 L 535.261719 337.046875 L 525.09375 327.792969 L 514.824219 318.578125 L 504.460938 309.414062 L 494.023438 300.308594 L 483.539062 291.292969 L 472.964844 282.324219 L 462.34375 273.449219 L 451.683594 264.671875 L 440.980469 255.980469 L 430.269531 247.402344 L 419.523438 238.9375 L 408.789062 230.601562 L 398.042969 222.382812 L 387.3125 214.304688 L 376.617188 206.390625 L 365.953125 198.617188 L 355.332031 191.023438 L 344.757812 183.582031 L 334.253906 176.320312 L 323.824219 169.253906 L 313.472656 162.375 L 303.230469 155.695312 L 293.089844 149.230469 L 283.070312 142.976562 L 273.164062 136.960938 L 263.398438 131.175781 L 253.78125 125.617188 L 244.335938 120.320312 L 235.054688 115.273438 L 225.957031 110.496094 L 217.058594 105.980469 L 208.363281 101.765625 L 199.902344 97.828125 L 191.648438 94.183594 L 183.648438 90.855469 L 175.902344 87.824219 L 168.417969 85.117188 L 161.179688 82.734375 L 154.257812 80.679688 L 147.640625 78.960938 L 141.339844 77.582031 L 135.351562 76.554688 L 129.703125 75.890625 L 124.394531 75.582031 L 119.46875 75.621094 L 114.90625 76.058594 L 110.714844 76.867188 L 106.910156 78.039062 L 103.511719 79.609375 L 100.542969 81.5625 L 97.960938 83.890625 L 95.824219 86.625 L 94.144531 89.757812 L 92.902344 93.269531 L 92.117188 97.175781 L 91.8125 101.476562 L 91.972656 106.175781 L 92.605469 111.285156 L 93.730469 116.757812 L 95.347656 122.617188 L 97.445312 128.867188 L 100.042969 135.511719 L 103.144531 142.511719 L 106.730469 149.871094 L 110.832031 157.589844 L 115.421875 165.65625 L 120.519531 174.054688 L 126.113281 182.792969 L 132.191406 191.839844 L 138.773438 201.195312 L 145.824219 210.84375 L 153.351562 220.773438 L 161.328125 230.96875 L 169.761719 241.417969 L 178.644531 252.078125 L 187.960938 262.964844 L 197.6875 274.050781 L 207.820312 285.308594 L 218.332031 296.730469 L 229.21875 308.285156 L 240.464844 319.953125 L 252.035156 331.714844 L 263.90625 343.550781 L 276.085938 355.429688 L 288.523438 367.34375 L 301.203125 379.261719 L 314.117188 391.164062 L 327.21875 403.023438 L 340.492188 414.816406 L 353.925781 426.511719 L 367.488281 438.105469 L 381.136719 449.574219 L 394.863281 460.890625 L 408.625 472.03125 L 422.410156 482.984375 L 436.171875 493.707031 L 449.910156 504.199219 L 463.582031 514.433594 L 477.171875 524.386719 L 490.636719 534.042969 L 503.960938 543.398438 L 517.121094 552.433594 L 530.089844 561.117188 L 542.855469 569.441406 L 555.390625 577.410156 L 567.664062 585 L 579.667969 592.195312 L 591.394531 598.984375 L 602.792969 605.363281 L 613.871094 611.332031 L 624.597656 616.863281 L 634.96875 621.976562 L 644.960938 626.652344 L 654.550781 630.894531 L 663.757812 634.695312 L 672.554688 638.054688 L 680.90625 640.96875 L 688.84375 643.453125 L 696.332031 645.496094 L 703.375 647.089844 L 709.964844 648.261719 L 716.113281 649 L 721.78125 649.316406 L 727.003906 649.203125 L 731.75 648.667969 L 736.027344 647.722656 L 739.839844 646.394531 L 743.199219 644.652344 L 746.082031 642.535156 L 748.511719 640.023438 L 750.496094 637.171875 "/>
</g>
</g>
</g>
<g clip-path="url(#clip7)" clip-rule="nonzero">
<g clip-path="url(#clip8)" clip-rule="nonzero">
<g clip-path="url(#clip9)" clip-rule="nonzero">
<g clip-path="url(#clip10)" clip-rule="nonzero">
<g clip-path="url(#clip11)" clip-rule="nonzero">
<path style=" stroke:none;fill-rule:nonzero;fill:rgb(0%,40.388489%,65.879822%);fill-opacity:1;" d="M 748.535156 640.027344 L 714.371094 676.886719 L 711.792969 679.542969 L 708.757812 681.835938 L 705.261719 683.734375 L 701.300781 685.246094 L 696.890625 686.34375 L 692.003906 687.042969 L 686.664062 687.328125 L 680.863281 687.191406 L 674.601562 686.621094 L 667.878906 685.625 L 660.726562 684.191406 L 653.121094 682.332031 L 645.082031 680.03125 L 636.628906 677.285156 L 627.746094 674.089844 L 618.46875 670.453125 L 608.773438 666.386719 L 598.707031 661.875 L 588.265625 656.9375 L 577.476562 651.558594 L 566.335938 645.746094 L 554.875 639.519531 L 543.113281 632.882812 L 531.070312 625.84375 L 518.753906 618.410156 L 506.191406 610.582031 L 493.40625 602.394531 L 480.417969 593.839844 L 467.242188 584.933594 L 453.917969 575.714844 L 440.453125 566.164062 L 426.882812 556.332031 L 413.226562 546.203125 L 399.53125 535.816406 L 385.796875 525.179688 L 372.078125 514.328125 L 358.359375 503.269531 L 344.699219 492.035156 L 331.117188 480.625 L 317.632812 469.078125 L 304.285156 457.425781 L 291.085938 445.671875 L 278.074219 433.84375 L 265.253906 421.972656 L 252.667969 410.074219 L 240.339844 398.179688 L 228.273438 386.292969 L 216.515625 374.464844 L 205.058594 362.683594 L 193.945312 350.992188 L 183.179688 339.398438 L 172.796875 327.945312 L 162.792969 316.636719 L 153.195312 305.507812 L 144.027344 294.554688 L 135.292969 283.804688 L 127 273.292969 L 119.160156 263.011719 L 111.808594 252.992188 L 104.90625 243.242188 L 98.492188 233.773438 L 92.570312 224.597656 L 87.140625 215.75 L 82.199219 207.222656 L 77.761719 199.035156 L 73.8125 191.195312 L 70.371094 183.6875 L 67.429688 176.554688 L 64.988281 169.777344 L 63.019531 163.351562 L 61.554688 157.339844 L 60.589844 151.707031 L 60.105469 146.445312 L 60.078125 141.585938 L 60.542969 137.109375 L 61.460938 133.015625 L 62.847656 129.332031 L 64.667969 126.03125 L 66.925781 123.125 L 97.960938 83.890625 L 95.824219 86.625 L 94.144531 89.757812 L 92.902344 93.269531 L 92.117188 97.175781 L 91.8125 101.476562 L 91.972656 106.175781 L 92.605469 111.285156 L 93.730469 116.757812 L 95.347656 122.617188 L 97.445312 128.867188 L 100.042969 135.511719 L 103.144531 142.511719 L 106.730469 149.871094 L 110.832031 157.589844 L 115.421875 165.65625 L 120.519531 174.054688 L 126.113281 182.792969 L 132.191406 191.839844 L 138.773438 201.195312 L 145.824219 210.84375 L 153.351562 220.773438 L 161.328125 230.96875 L 169.761719 241.417969 L 178.644531 252.078125 L 187.960938 262.964844 L 197.6875 274.050781 L 207.820312 285.308594 L 218.332031 296.730469 L 229.21875 308.285156 L 240.464844 319.953125 L 252.035156 331.714844 L 263.90625 343.550781 L 276.085938 355.429688 L 288.523438 367.34375 L 301.203125 379.261719 L 314.117188 391.164062 L 327.21875 403.023438 L 340.492188 414.816406 L 353.925781 426.511719 L 367.488281 438.105469 L 381.136719 449.574219 L 394.863281 460.890625 L 408.625 472.03125 L 422.410156 482.984375 L 436.171875 493.707031 L 449.910156 504.199219 L 463.582031 514.433594 L 477.171875 524.386719 L 490.636719 534.042969 L 503.960938 543.398438 L 517.121094 552.433594 L 530.089844 561.117188 L 542.855469 569.441406 L 555.390625 577.410156 L 567.664062 585 L 579.667969 592.195312 L 591.394531 598.984375 L 602.792969 605.363281 L 613.871094 611.332031 L 624.597656 616.863281 L 634.96875 621.976562 L 644.960938 626.652344 L 654.550781 630.894531 L 663.757812 634.695312 L 672.554688 638.054688 L 680.90625 640.96875 L 688.84375 643.453125 L 696.332031 645.496094 L 703.375 647.089844 L 709.964844 648.261719 L 716.113281 649 L 721.78125 649.316406 L 727.003906 649.203125 L 731.75 648.667969 L 736.027344 647.722656 L 739.839844 646.394531 L 743.199219 644.652344 L 746.082031 642.535156 L 748.535156 640.027344 "/>
</g>
</g>
</g>
</g>
</g>
</g>
</svg>
