<?xml version="1.0" encoding="UTF-8"?>
<svg xmlns="http://www.w3.org/2000/svg" xmlns:xlink="http://www.w3.org/1999/xlink" width="810pt" height="809.999993pt" viewBox="0 0 810 809.999993" version="1.2">
<defs>
<clipPath id="clip1">
  <path d="M 136 132 L 688 132 L 688 617 L 136 617 Z M 136 132 "/>
</clipPath>
<clipPath id="clip2">
  <path d="M 156.476562 13.851562 L 810.199219 568.398438 L 653.003906 753.703125 L -0.71875 199.160156 Z M 156.476562 13.851562 "/>
</clipPath>
<clipPath id="clip3">
  <path d="M 156.476562 13.851562 L 810.199219 568.398438 L 653.003906 753.703125 L -0.71875 199.160156 Z M 156.476562 13.851562 "/>
</clipPath>
<clipPath id="clip4">
  <path d="M 156.476562 13.851562 L 810.40625 568.570312 L 653.257812 753.824219 L -0.675781 199.105469 Z M 156.476562 13.851562 "/>
</clipPath>
<clipPath id="clip5">
  <path d="M 91 75 L 755 75 L 755 650 L 91 650 Z M 91 75 "/>
</clipPath>
<clipPath id="clip6">
  <path d="M 156.476562 13.851562 L 810.199219 568.398438 L 653.003906 753.703125 L -0.71875 199.160156 Z M 156.476562 13.851562 "/>
</clipPath>
<clipPath id="clip7">
  <path d="M 156.476562 13.851562 L 810.199219 568.398438 L 653.003906 753.703125 L -0.71875 199.160156 Z M 156.476562 13.851562 "/>
</clipPath>
<clipPath id="clip8">
  <path d="M 156.476562 13.851562 L 810.40625 568.570312 L 653.257812 753.824219 L -0.675781 199.105469 Z M 156.476562 13.851562 "/>
</clipPath>
<clipPath id="clip9">
  <path d="M 60 83 L 749 83 L 749 688 L 60 688 Z M 60 83 "/>
</clipPath>
<clipPath id="clip10">
  <path d="M 156.476562 13.851562 L 810.199219 568.398438 L 653.003906 753.703125 L -0.71875 199.160156 Z M 156.476562 13.851562 "/>
</clipPath>
<clipPath id="clip11">
  <path d="M 156.476562 13.851562 L 810.199219 568.398438 L 653.003906 753.703125 L -0.71875 199.160156 Z M 156.476562 13.851562 "/>
</clipPath>
<clipPath id="clip12">
  <path d="M 156.476562 13.851562 L 810.40625 568.570312 L 653.257812 753.824219 L -0.675781 199.105469 Z M 156.476562 13.851562 "/>
</clipPath>
<clipPath id="clip13">
  <path d="M 98.710938 83.007812 L 751.59375 636.839844 L 652.160156 754.054688 L -0.722656 200.222656 Z M 98.710938 83.007812 "/>
</clipPath>
<clipPath id="clip14">
  <path d="M 98.710938 83.007812 L 751.59375 636.839844 L 652.746094 753.367188 L -0.136719 199.535156 Z M 98.710938 83.007812 "/>
</clipPath>
</defs>
<g id="surface1">
<g clip-path="url(#clip1)" clip-rule="nonzero">
<g clip-path="url(#clip2)" clip-rule="nonzero">
<g clip-path="url(#clip3)" clip-rule="nonzero">
<g clip-path="url(#clip4)" clip-rule="nonzero">
<path style=" stroke:none;fill-rule:nonzero;fill:rgb(65.098572%,39.219666%,72.549438%);fill-opacity:1;" d="M 683.554688 577.78125 L 681.753906 579.820312 L 648.039062 616.808594 L 649.949219 614.628906 L 651.5 612.171875 L 652.710938 609.441406 L 653.566406 606.4375 L 654.054688 603.148438 L 654.210938 599.597656 L 654.023438 595.800781 L 653.503906 591.769531 L 652.636719 587.484375 L 651.445312 582.980469 L 649.941406 578.246094 L 648.101562 573.300781 L 645.957031 568.152344 L 643.496094 562.796875 L 640.734375 557.25 L 637.667969 551.527344 L 634.324219 545.632812 L 630.6875 539.578125 L 626.777344 533.367188 L 622.582031 527.011719 L 618.148438 520.511719 L 613.449219 513.886719 L 608.5 507.136719 L 603.300781 500.277344 L 597.886719 493.320312 L 592.234375 486.253906 L 586.378906 479.105469 L 580.296875 471.882812 L 574.011719 464.585938 L 567.546875 457.21875 L 560.886719 449.816406 L 554.050781 442.34375 L 547.042969 434.851562 L 539.875 427.332031 L 532.546875 419.777344 L 525.078125 412.207031 L 517.464844 404.636719 L 509.726562 397.050781 L 501.859375 389.480469 L 493.890625 381.925781 L 485.800781 374.394531 L 477.621094 366.902344 L 469.339844 359.433594 L 460.988281 352.023438 L 452.5625 344.648438 L 444.078125 337.335938 L 435.542969 330.09375 L 426.957031 322.929688 L 418.335938 315.84375 L 409.664062 308.839844 L 400.980469 301.933594 L 392.273438 295.125 L 383.578125 288.421875 L 374.882812 281.832031 L 366.195312 275.367188 L 357.527344 269.039062 L 348.890625 262.84375 L 340.296875 256.78125 L 331.757812 250.878906 L 323.269531 245.144531 L 314.855469 239.554688 L 306.507812 234.136719 L 298.246094 228.894531 L 290.074219 223.835938 L 282.003906 218.964844 L 274.046875 214.296875 L 266.195312 209.816406 L 258.484375 205.546875 L 250.910156 201.484375 L 243.492188 197.644531 L 236.234375 194.039062 L 229.128906 190.652344 L 222.210938 187.515625 L 215.457031 184.613281 L 208.917969 181.960938 L 202.585938 179.558594 L 196.460938 177.421875 L 190.566406 175.546875 L 184.898438 173.941406 L 179.472656 172.601562 L 174.292969 171.539062 L 169.371094 170.75 L 164.714844 170.25 L 160.34375 170.042969 L 156.25 170.136719 L 152.453125 170.507812 L 148.960938 171.183594 L 145.769531 172.160156 L 142.902344 173.4375 L 140.351562 175.019531 L 138.132812 176.921875 L 136.261719 179.109375 L 167.5 140.230469 L 169.273438 138.160156 L 171.382812 136.410156 L 173.820312 134.957031 L 176.585938 133.800781 L 179.691406 132.960938 L 183.097656 132.417969 L 186.804688 132.179688 L 190.792969 132.234375 L 195.074219 132.570312 L 199.644531 133.207031 L 204.488281 134.109375 L 209.574219 135.304688 L 214.929688 136.761719 L 220.523438 138.5 L 226.363281 140.503906 L 232.421875 142.773438 L 238.699219 145.296875 L 245.191406 148.070312 L 251.875 151.09375 L 258.742188 154.351562 L 265.789062 157.847656 L 273.011719 161.566406 L 280.398438 165.515625 L 287.929688 169.679688 L 295.601562 174.0625 L 303.40625 178.636719 L 311.328125 183.410156 L 319.363281 188.382812 L 327.515625 193.53125 L 335.773438 198.871094 L 344.105469 204.363281 L 352.515625 210.035156 L 361 215.863281 L 369.542969 221.84375 L 378.125 227.964844 L 386.761719 234.222656 L 395.429688 240.625 L 404.125 247.144531 L 412.828125 253.78125 L 421.550781 260.539062 L 430.253906 267.390625 L 438.972656 274.339844 L 447.660156 281.382812 L 456.3125 288.515625 L 464.9375 295.714844 L 473.515625 302.992188 L 482.046875 310.328125 L 490.507812 317.714844 L 498.90625 325.179688 L 507.226562 332.65625 L 515.460938 340.175781 L 523.609375 347.710938 L 531.632812 355.261719 L 539.558594 362.816406 L 547.363281 370.386719 L 555.046875 377.945312 L 562.597656 385.507812 L 569.988281 393.039062 L 577.234375 400.550781 L 584.324219 408.023438 L 591.25 415.445312 L 597.992188 422.835938 L 604.558594 430.164062 L 610.925781 437.421875 L 617.089844 444.59375 L 623.046875 451.683594 L 628.789062 458.691406 L 634.300781 465.59375 L 639.589844 472.398438 L 644.652344 479.070312 L 649.460938 485.628906 L 654.003906 492.054688 L 658.296875 498.339844 L 662.328125 504.472656 L 666.070312 510.453125 L 669.539062 516.265625 L 672.714844 521.898438 L 675.585938 527.347656 L 678.152344 532.601562 L 680.425781 537.664062 L 682.386719 542.519531 L 684.019531 547.152344 L 685.339844 551.558594 L 686.320312 555.730469 L 686.976562 559.671875 L 687.273438 563.355469 L 687.25 566.78125 L 686.855469 569.949219 L 686.121094 572.847656 L 685.03125 575.460938 L 683.554688 577.78125 "/>
</g>
</g>
</g>
</g>
<g clip-path="url(#clip5)" clip-rule="nonzero">
<g clip-path="url(#clip6)" clip-rule="nonzero">
<g clip-path="url(#clip7)" clip-rule="nonzero">
<g clip-path="url(#clip8)" clip-rule="nonzero">
<path style=" stroke:none;fill-rule:nonzero;fill:rgb(94.509888%,73.329163%,88.238525%);fill-opacity:1;" d="M 677.070312 583.023438 L 674.175781 584.160156 L 670.933594 584.980469 L 667.320312 585.488281 L 663.363281 585.667969 L 659.050781 585.53125 L 654.382812 585.074219 L 649.375 584.277344 L 644.011719 583.136719 L 638.320312 581.691406 L 632.285156 579.886719 L 625.917969 577.75 L 619.230469 575.273438 L 612.226562 572.453125 L 604.914062 569.3125 L 597.3125 565.828125 L 589.421875 562.035156 L 581.25 557.910156 L 572.808594 553.453125 L 564.125 548.683594 L 555.183594 543.605469 L 546.023438 538.214844 L 536.648438 532.535156 L 527.097656 526.566406 L 517.347656 520.304688 L 507.433594 513.78125 L 497.375 507 L 487.179688 499.953125 L 476.886719 492.679688 L 466.480469 485.175781 L 455.996094 477.464844 L 445.457031 469.539062 L 434.859375 461.4375 L 424.257812 453.160156 L 413.652344 444.714844 L 403.054688 436.121094 L 392.5 427.40625 L 381.984375 418.574219 L 371.539062 409.644531 L 361.1875 400.625 L 350.949219 391.550781 L 340.835938 382.421875 L 330.863281 373.265625 L 321.0625 364.089844 L 311.449219 354.910156 L 302.023438 345.757812 L 292.8125 336.632812 L 283.824219 327.542969 L 275.074219 318.523438 L 266.582031 309.585938 L 258.378906 300.746094 L 250.453125 292.011719 L 242.820312 283.398438 L 235.480469 274.929688 L 228.476562 266.617188 L 221.792969 258.476562 L 215.449219 250.5 L 209.449219 242.722656 L 203.808594 235.132812 L 198.519531 227.75 L 193.582031 220.601562 L 189.039062 213.6875 L 184.859375 207.011719 L 181.054688 200.589844 L 177.636719 194.421875 L 174.589844 188.527344 L 171.921875 182.894531 L 169.632812 177.550781 L 167.734375 172.492188 L 166.226562 167.710938 L 165.085938 163.222656 L 164.328125 159.03125 L 163.941406 155.140625 L 163.917969 151.554688 L 164.273438 148.261719 L 165 145.285156 L 166.054688 142.617188 L 167.476562 140.257812 L 169.253906 138.1875 L 171.359375 136.4375 L 173.796875 134.984375 L 176.566406 133.828125 L 179.671875 132.988281 L 183.074219 132.445312 L 186.785156 132.207031 L 190.769531 132.257812 L 195.050781 132.597656 L 199.621094 133.234375 L 204.460938 134.140625 L 209.550781 135.328125 L 214.90625 136.792969 L 220.5 138.527344 L 226.335938 140.535156 L 232.398438 142.800781 L 238.675781 145.320312 L 245.167969 148.09375 L 251.851562 151.121094 L 258.722656 154.378906 L 265.765625 157.875 L 272.988281 161.59375 L 280.375 165.542969 L 287.90625 169.707031 L 295.578125 174.089844 L 303.382812 178.671875 L 311.300781 183.441406 L 319.339844 188.40625 L 327.492188 193.558594 L 335.75 198.898438 L 344.082031 204.390625 L 352.488281 210.066406 L 360.976562 215.890625 L 369.523438 221.871094 L 378.101562 227.992188 L 386.738281 234.25 L 395.40625 240.652344 L 404.101562 247.167969 L 412.804688 253.808594 L 421.527344 260.566406 L 430.230469 267.414062 L 438.949219 274.367188 L 447.636719 281.410156 L 456.289062 288.542969 L 464.917969 295.742188 L 473.496094 303.019531 L 482.023438 310.355469 L 490.484375 317.738281 L 498.90625 325.179688 L 507.226562 332.65625 L 515.460938 340.175781 L 523.609375 347.710938 L 531.632812 355.261719 L 539.558594 362.816406 L 547.363281 370.386719 L 555.046875 377.945312 L 562.597656 385.507812 L 569.988281 393.039062 L 577.234375 400.550781 L 584.324219 408.023438 L 591.25 415.445312 L 597.992188 422.835938 L 604.558594 430.164062 L 610.925781 437.421875 L 617.089844 444.59375 L 623.046875 451.683594 L 628.789062 458.691406 L 634.300781 465.59375 L 639.589844 472.398438 L 644.652344 479.070312 L 649.460938 485.628906 L 654.003906 492.054688 L 658.296875 498.339844 L 662.328125 504.472656 L 666.070312 510.453125 L 669.539062 516.265625 L 672.714844 521.898438 L 675.585938 527.347656 L 678.152344 532.601562 L 680.425781 537.664062 L 682.386719 542.519531 L 684.019531 547.152344 L 685.339844 551.558594 L 686.320312 555.730469 L 686.976562 559.671875 L 687.273438 563.355469 L 687.25 566.78125 L 686.855469 569.949219 L 686.121094 572.847656 L 685.03125 575.460938 L 683.578125 577.804688 L 681.777344 579.84375 L 679.628906 581.585938 Z M 750.71875 637.328125 L 752.230469 634.09375 L 753.296875 630.519531 L 753.90625 626.59375 L 754.078125 622.339844 L 753.84375 617.78125 L 753.164062 612.894531 L 752.058594 607.71875 L 750.527344 602.25 L 748.609375 596.496094 L 746.265625 590.480469 L 743.542969 584.207031 L 740.441406 577.683594 L 736.960938 570.933594 L 733.121094 563.945312 L 728.929688 556.753906 L 724.378906 549.34375 L 719.480469 541.742188 L 714.261719 533.976562 L 708.726562 526.039062 L 702.878906 517.925781 L 696.726562 509.667969 L 690.285156 501.261719 L 683.558594 492.734375 L 676.558594 484.082031 L 669.300781 475.335938 L 661.78125 466.480469 L 654.019531 457.523438 L 646.023438 448.496094 L 637.804688 439.394531 L 629.371094 430.226562 L 620.746094 421.007812 L 611.914062 411.75 L 602.890625 402.457031 L 593.703125 393.132812 L 584.339844 383.800781 L 574.828125 374.453125 L 565.160156 365.09375 L 555.355469 355.761719 L 545.429688 346.441406 L 535.382812 337.144531 L 525.210938 327.894531 L 514.9375 318.671875 L 504.570312 309.507812 L 494.132812 300.398438 L 483.640625 291.382812 L 473.066406 282.410156 L 462.4375 273.53125 L 451.777344 264.75 L 441.070312 256.058594 L 430.355469 247.476562 L 419.605469 239.007812 L 408.867188 230.667969 L 398.121094 222.445312 L 387.386719 214.363281 L 376.6875 206.449219 L 366.019531 198.675781 L 355.398438 191.074219 L 344.820312 183.632812 L 334.3125 176.367188 L 323.878906 169.296875 L 313.527344 162.414062 L 303.28125 155.734375 L 293.140625 149.265625 L 283.117188 143.007812 L 273.207031 136.992188 L 263.4375 131.203125 L 253.820312 125.640625 L 244.371094 120.34375 L 235.089844 115.292969 L 225.988281 110.511719 L 217.089844 105.996094 L 208.394531 101.777344 L 199.929688 97.835938 L 191.675781 94.191406 L 183.671875 90.863281 L 175.925781 87.828125 L 168.441406 85.117188 L 161.203125 82.730469 L 154.277344 80.675781 L 147.660156 78.957031 L 141.359375 77.574219 L 135.371094 76.546875 L 129.71875 75.882812 L 124.410156 75.570312 L 119.484375 75.609375 L 114.921875 76.042969 L 110.730469 76.851562 L 106.925781 78.023438 L 103.527344 79.59375 L 100.558594 81.542969 L 97.976562 83.871094 L 95.84375 86.601562 L 94.160156 89.738281 L 92.921875 93.25 L 92.140625 97.152344 L 91.832031 101.457031 L 91.996094 106.15625 L 92.628906 111.261719 L 93.757812 116.734375 L 95.375 122.59375 L 97.472656 128.847656 L 100.078125 135.488281 L 103.179688 142.492188 L 106.765625 149.851562 L 110.875 157.570312 L 115.464844 165.640625 L 120.566406 174.035156 L 126.164062 182.777344 L 132.242188 191.824219 L 138.828125 201.183594 L 145.882812 210.835938 L 153.414062 220.765625 L 161.390625 230.960938 L 169.832031 241.414062 L 178.71875 252.074219 L 188.035156 262.964844 L 197.769531 274.054688 L 207.90625 285.3125 L 218.417969 296.738281 L 229.3125 308.296875 L 240.5625 319.964844 L 252.136719 331.730469 L 264.011719 343.570312 L 276.195312 355.453125 L 288.636719 367.371094 L 301.324219 379.292969 L 314.238281 391.199219 L 327.34375 403.058594 L 340.625 414.855469 L 354.0625 426.554688 L 367.625 438.152344 L 381.28125 449.625 L 395.007812 460.945312 L 408.777344 472.089844 L 422.566406 483.042969 L 436.332031 493.773438 L 450.074219 504.269531 L 463.75 514.507812 L 477.34375 524.460938 L 490.8125 534.125 L 504.140625 543.480469 L 517.300781 552.523438 L 530.273438 561.210938 L 543.046875 569.535156 L 555.582031 577.507812 L 567.859375 585.101562 L 579.867188 592.300781 L 591.59375 599.089844 L 602.996094 605.476562 L 614.078125 611.445312 L 624.804688 616.980469 L 635.179688 622.097656 L 645.175781 626.777344 L 654.765625 631.019531 L 663.972656 634.820312 L 672.773438 638.1875 L 681.125 641.101562 L 689.0625 643.589844 L 696.554688 645.636719 L 703.597656 647.230469 L 710.1875 648.402344 L 716.339844 649.140625 L 722.003906 649.460938 L 727.226562 649.347656 L 731.976562 648.8125 L 736.253906 647.871094 L 740.0625 646.542969 L 743.421875 644.804688 L 746.304688 642.6875 L 748.734375 640.179688 L 750.71875 637.328125 "/>
</g>
</g>
</g>
</g>
<g clip-path="url(#clip9)" clip-rule="nonzero">
<g clip-path="url(#clip10)" clip-rule="nonzero">
<g clip-path="url(#clip11)" clip-rule="nonzero">
<g clip-path="url(#clip12)" clip-rule="nonzero">
<g clip-path="url(#clip13)" clip-rule="nonzero">
<g clip-path="url(#clip14)" clip-rule="nonzero">
<path style=" stroke:none;fill-rule:nonzero;fill:rgb(69.799805%,54.119873%,79.998779%);fill-opacity:1;" d="M 748.757812 640.179688 L 714.601562 677.027344 L 712.023438 679.683594 L 708.988281 681.976562 L 705.496094 683.875 L 701.535156 685.382812 L 697.125 686.480469 L 692.238281 687.179688 L 686.894531 687.460938 L 681.097656 687.320312 L 674.832031 686.75 L 668.109375 685.753906 L 660.957031 684.320312 L 653.351562 682.453125 L 645.308594 680.152344 L 636.855469 677.40625 L 627.972656 674.203125 L 618.691406 670.566406 L 608.996094 666.496094 L 598.925781 661.980469 L 588.484375 657.042969 L 577.691406 651.660156 L 566.546875 645.847656 L 555.085938 639.617188 L 543.324219 632.976562 L 531.277344 625.933594 L 518.957031 618.496094 L 506.390625 610.664062 L 493.601562 602.472656 L 480.613281 593.914062 L 467.429688 585.003906 L 454.105469 575.78125 L 440.632812 566.230469 L 427.0625 556.390625 L 413.402344 546.261719 L 399.699219 535.867188 L 385.964844 525.230469 L 372.238281 514.375 L 358.515625 503.3125 L 344.851562 492.074219 L 331.269531 480.660156 L 317.78125 469.109375 L 304.425781 457.453125 L 291.222656 445.695312 L 278.207031 433.867188 L 265.382812 421.992188 L 252.789062 410.089844 L 240.460938 398.1875 L 228.386719 386.300781 L 216.625 374.46875 L 205.164062 362.683594 L 194.046875 350.988281 L 183.277344 339.394531 L 172.890625 327.9375 L 162.886719 316.628906 L 153.28125 305.496094 L 144.109375 294.539062 L 135.371094 283.785156 L 127.074219 273.273438 L 119.234375 262.992188 L 111.878906 252.96875 L 104.972656 243.21875 L 98.554688 233.75 L 92.632812 224.570312 L 87.195312 215.722656 L 82.253906 207.195312 L 77.8125 199.003906 L 73.859375 191.164062 L 70.417969 183.652344 L 67.472656 176.519531 L 65.03125 169.742188 L 63.058594 163.320312 L 61.589844 157.304688 L 60.625 151.671875 L 60.140625 146.410156 L 60.113281 141.550781 L 60.574219 137.078125 L 61.492188 132.984375 L 62.875 129.300781 L 64.695312 126 L 66.953125 123.09375 L 97.976562 83.871094 L 95.84375 86.601562 L 94.160156 89.738281 L 92.921875 93.25 L 92.140625 97.152344 L 91.832031 101.457031 L 91.996094 106.15625 L 92.628906 111.261719 L 93.757812 116.734375 L 95.375 122.59375 L 97.472656 128.847656 L 100.078125 135.488281 L 103.179688 142.492188 L 106.765625 149.851562 L 110.875 157.570312 L 115.464844 165.640625 L 120.566406 174.035156 L 126.164062 182.777344 L 132.242188 191.824219 L 138.828125 201.183594 L 145.882812 210.835938 L 153.414062 220.765625 L 161.390625 230.960938 L 169.832031 241.414062 L 178.71875 252.074219 L 188.035156 262.964844 L 197.769531 274.054688 L 207.90625 285.3125 L 218.417969 296.738281 L 229.3125 308.296875 L 240.5625 319.964844 L 252.136719 331.730469 L 264.011719 343.570312 L 276.195312 355.453125 L 288.636719 367.371094 L 301.324219 379.292969 L 314.238281 391.199219 L 327.34375 403.058594 L 340.625 414.855469 L 354.0625 426.554688 L 367.625 438.152344 L 381.28125 449.625 L 395.007812 460.945312 L 408.777344 472.089844 L 422.566406 483.042969 L 436.332031 493.773438 L 450.074219 504.269531 L 463.75 514.507812 L 477.34375 524.460938 L 490.8125 534.125 L 504.140625 543.480469 L 517.300781 552.523438 L 530.273438 561.210938 L 543.046875 569.535156 L 555.582031 577.507812 L 567.859375 585.101562 L 579.867188 592.300781 L 591.59375 599.089844 L 602.996094 605.476562 L 614.078125 611.445312 L 624.804688 616.980469 L 635.179688 622.097656 L 645.175781 626.777344 L 654.765625 631.019531 L 663.972656 634.820312 L 672.773438 638.1875 L 681.125 641.101562 L 689.0625 643.589844 L 696.554688 645.636719 L 703.597656 647.230469 L 710.1875 648.402344 L 716.339844 649.140625 L 722.003906 649.460938 L 727.226562 649.347656 L 731.976562 648.8125 L 736.253906 647.871094 L 740.0625 646.542969 L 743.421875 644.804688 L 746.304688 642.6875 L 748.757812 640.179688 "/>
</g>
</g>
</g>
</g>
</g>
</g>
</g>
</svg>
